<?xml version="1.0" standalone="no"?>
<!DOCTYPE svg PUBLIC "-//W3C//DTD SVG 20010904//EN"
 "http://www.w3.org/TR/2001/REC-SVG-20010904/DTD/svg10.dtd">
<svg version="1.0" xmlns="http://www.w3.org/2000/svg"
 width="1024.000000pt" height="1024.000000pt" viewBox="0 0 1024.000000 1024.000000"
 preserveAspectRatio="xMidYMid meet">

<g transform="translate(0.000000,1024.000000) scale(0.100000,-0.100000)"
fill="#000000" stroke="none">
<path d="M4905 8544 c-16 -2 -79 -9 -140 -15 -218 -21 -546 -97 -780 -179
-212 -76 -401 -167 -623 -301 -726 -441 -1240 -1188 -1422 -2066 -37 -177 -51
-305 -57 -534 -14 -534 82 -986 310 -1459 218 -453 613 -901 1052 -1197 629
-423 1438 -637 2145 -568 590 57 1149 262 1675 615 302 203 613 519 833 847
171 254 362 709 431 1028 58 268 65 343 65 665 0 266 -3 323 -22 443 -56 349
-144 623 -306 948 -154 307 -334 556 -585 809 -224 225 -363 335 -621 491
-457 274 -922 423 -1465 469 -111 9 -421 11 -490 4z m142 -20 c-3 -3 -12 -4
-19 -1 -8 3 -5 6 6 6 11 1 17 -2 13 -5z m206 -1 c-13 -2 -35 -2 -50 0 -16 2
-5 4 22 4 28 0 40 -2 28 -4z m103 -28 c279 -11 565 -68 862 -170 640 -220
1218 -663 1589 -1220 265 -398 425 -790 504 -1240 31 -173 38 -561 15 -775
-31 -288 -117 -604 -241 -886 -269 -610 -754 -1141 -1347 -1473 -270 -151
-505 -244 -823 -326 -304 -78 -511 -105 -815 -105 -614 0 -1250 194 -1770 541
-599 400 -1029 960 -1233 1605 -110 348 -161 757 -137 1106 30 457 135 850
329 1238 364 726 977 1258 1766 1530 208 71 473 134 680 161 99 12 384 27 455
22 25 -1 99 -5 166 -8z"/>
<path d="M4905 8264 c-249 -25 -442 -62 -645 -124 -345 -106 -661 -274 -940
-498 -229 -184 -492 -480 -628 -709 -133 -222 -266 -532 -321 -751 -65 -255
-85 -422 -86 -712 0 -327 19 -476 100 -766 83 -294 246 -628 440 -899 68 -94
233 -282 331 -375 465 -441 985 -693 1671 -809 434 -74 931 -47 1360 74 797
225 1433 722 1779 1392 31 60 49 100 41 91 -19 -24 -67 -24 -67 -1 0 9 -23
-23 -51 -72 -125 -218 -260 -394 -444 -580 -155 -156 -249 -233 -450 -366
-492 -327 -1033 -490 -1630 -492 -746 -2 -1411 231 -1956 687 -156 130 -295
274 -337 349 -18 31 -36 57 -41 57 -5 0 -14 13 -19 30 -7 18 -16 28 -24 25
-47 -18 -273 352 -391 640 -204 498 -255 1077 -141 1595 71 321 211 647 399
930 113 170 198 273 340 415 346 348 766 581 1260 704 122 30 326 62 381 61
100 -4 364 13 364 23 0 6 -38 7 -102 3 -181 -12 -317 -16 -332 -10 -21 8 -10
24 15 24 10 0 19 4 19 8 0 4 14 9 32 10 17 2 37 7 44 13 24 20 307 32 454 20
207 -18 356 -39 460 -66 52 -14 103 -25 115 -25 24 0 359 -115 460 -158 137
-57 329 -162 485 -264 41 -27 62 -38 47 -26 -66 54 -254 165 -412 243 -311
153 -597 243 -925 291 -100 15 -561 27 -655 18z m1525 -5424 c-8 -5 -19 -10
-25 -10 -5 0 -3 5 5 10 8 5 20 10 25 10 6 0 3 -5 -5 -10z m-363 -116 c-3 -3
-12 -4 -19 -1 -8 3 -5 6 6 6 11 1 17 -2 13 -5z m-44 -11 c-7 -2 -19 -2 -25 0
-7 3 -2 5 12 5 14 0 19 -2 13 -5z m-156 -29 c-3 -3 -12 -4 -19 -1 -8 3 -5 6 6
6 11 1 17 -2 13 -5z"/>
<path d="M3980 8230 c-8 -5 -10 -10 -5 -10 6 0 17 5 25 10 8 5 11 10 5 10 -5
0 -17 -5 -25 -10z"/>
<path d="M3870 8186 c-148 -65 -389 -195 -474 -257 -45 -33 -44 -35 7 -14 30
12 37 12 47 0 10 -12 17 -11 46 6 l36 20 -7 -22 c-6 -19 -5 -20 8 -8 8 8 13
17 11 21 -2 4 0 10 6 13 6 4 9 1 8 -6 -2 -6 3 -14 11 -17 10 -3 13 2 9 22 -4
21 -2 26 9 22 9 -4 13 -1 10 6 -2 7 -10 12 -17 10 -7 -2 -17 3 -21 10 -6 10
-16 7 -41 -12 -18 -13 -27 -17 -20 -8 16 20 279 162 385 208 71 31 89 41 70
39 -5 0 -42 -15 -83 -33z"/>
<path d="M5258 8173 c18 -2 45 -2 60 0 15 2 0 4 -33 4 -33 0 -45 -2 -27 -4z"/>
<path d="M5370 8168 c0 -5 18 -8 40 -8 22 0 40 2 40 4 0 2 -18 6 -40 8 -22 2
-40 0 -40 -4z"/>
<path d="M5483 8153 c9 -2 25 -2 35 0 9 3 1 5 -18 5 -19 0 -27 -2 -17 -5z"/>
<path d="M5578 8153 c7 -3 16 -2 19 1 4 3 -2 6 -13 5 -11 0 -14 -3 -6 -6z"/>
<path d="M5675 8130 c-3 -5 1 -10 9 -10 9 0 16 5 16 10 0 6 -4 10 -9 10 -6 0
-13 -4 -16 -10z"/>
<path d="M5710 8125 c0 -4 50 -18 110 -30 54 -11 30 4 -34 20 -60 16 -76 18
-76 10z"/>
<path d="M5870 8086 c0 -6 172 -58 176 -53 3 2 -33 16 -80 31 -85 26 -96 29
-96 22z"/>
<path d="M6085 8015 c17 -8 37 -14 45 -14 8 0 -1 7 -20 14 -46 18 -64 17 -25
0z"/>
<path d="M3515 7880 c3 -5 8 -10 11 -10 2 0 4 5 4 10 0 6 -5 10 -11 10 -5 0
-7 -4 -4 -10z"/>
<path d="M3870 7870 c-9 -6 -10 -10 -3 -10 6 0 15 5 18 10 8 12 4 12 -15 0z"/>
<path d="M3235 7823 l-48 -36 44 -38 c24 -21 48 -39 52 -39 16 0 97 61 97 74
0 13 -72 76 -88 76 -5 0 -31 -16 -57 -37z"/>
<path d="M3549 7839 l-24 -20 28 17 c15 9 27 18 27 20 0 8 -8 4 -31 -17z"/>
<path d="M7090 7786 c0 -2 8 -10 18 -17 15 -13 16 -12 3 4 -13 16 -21 21 -21
13z"/>
<path d="M7150 7736 c0 -2 8 -10 18 -17 15 -13 16 -12 3 4 -13 16 -21 21 -21
13z"/>
<path d="M3053 7675 l-48 -45 45 -40 c25 -22 50 -40 56 -40 6 0 32 18 57 40
l46 40 -48 45 c-27 25 -51 45 -54 45 -3 0 -27 -20 -54 -45z"/>
<path d="M6930 7686 c0 -2 8 -10 18 -17 15 -13 16 -12 3 4 -13 16 -21 21 -21
13z"/>
<path d="M7210 7687 c0 -2 15 -16 33 -33 l32 -29 -29 33 c-28 30 -36 37 -36
29z"/>
<path d="M6970 7656 c0 -2 8 -10 18 -17 15 -13 16 -12 3 4 -13 16 -21 21 -21
13z"/>
<path d="M7010 7627 c0 -3 21 -22 47 -43 26 -21 44 -33 40 -27 -9 14 -87 77
-87 70z"/>
<path d="M7330 7575 c19 -19 36 -35 39 -35 3 0 -10 16 -29 35 -19 19 -36 35
-39 35 -3 0 10 -16 29 -35z"/>
<path d="M2881 7514 c-23 -26 -41 -50 -41 -53 0 -4 23 -24 51 -45 l50 -39 49
48 48 48 -53 43 c-30 24 -56 44 -58 44 -3 0 -24 -21 -46 -46z"/>
<path d="M3409 7533 c-13 -16 -12 -17 4 -4 9 7 17 15 17 17 0 8 -8 3 -21 -13z"/>
<path d="M7140 7515 c13 -14 26 -25 28 -25 3 0 -5 11 -18 25 -13 14 -26 25
-28 25 -3 0 5 -11 18 -25z"/>
<path d="M3349 7483 l-24 -28 28 24 c25 23 32 31 24 31 -2 0 -14 -12 -28 -27z"/>
<path d="M7275 7390 c49 -49 92 -90 95 -90 2 0 -36 41 -85 90 -49 50 -92 90
-95 90 -2 0 36 -40 85 -90z"/>
<path d="M3225 7368 l-70 -73 73 70 c67 64 77 75 69 75 -1 0 -34 -33 -72 -72z"/>
<path d="M7480 7415 c13 -14 26 -25 28 -25 3 0 -5 11 -18 25 -13 14 -26 25
-28 25 -3 0 5 -11 18 -25z"/>
<path d="M2711 7325 c-22 -30 -41 -57 -41 -59 0 -3 28 -20 62 -37 l62 -31 24
28 c13 16 33 40 44 52 11 13 18 25 16 26 -2 1 -29 18 -60 39 -32 20 -59 37
-62 37 -2 0 -22 -25 -45 -55z"/>
<path d="M3478 7303 c6 -2 18 -2 25 0 6 3 1 5 -13 5 -14 0 -19 -2 -12 -5z"/>
<path d="M7370 7287 c0 -2 15 -16 33 -33 l32 -29 -29 33 c-28 30 -36 37 -36
29z"/>
<path d="M3610 7276 c0 -2 7 -7 16 -10 8 -3 12 -2 9 4 -6 10 -25 14 -25 6z"/>
<path d="M7655 7196 c10 -14 19 -26 22 -26 7 0 -17 39 -28 46 -6 3 -3 -5 6
-20z"/>
<path d="M7440 7206 c0 -2 8 -10 18 -17 15 -13 16 -12 3 4 -13 16 -21 21 -21
13z"/>
<path d="M7545 7170 c10 -11 20 -20 23 -20 3 0 -3 9 -13 20 -10 11 -20 20 -23
20 -3 0 3 -9 13 -20z"/>
<path d="M2563 7124 c-18 -31 -33 -60 -33 -65 0 -10 93 -59 114 -59 11 0 67
74 84 112 3 7 -110 68 -125 68 -4 0 -23 -25 -40 -56z"/>
<path d="M7470 7166 c0 -2 8 -10 18 -17 15 -13 16 -12 3 4 -13 16 -21 21 -21
13z"/>
<path d="M3732 7120 c0 -14 2 -19 5 -12 2 6 2 18 0 25 -3 6 -5 1 -5 -13z"/>
<path d="M7830 6951 c0 -6 4 -13 10 -16 6 -3 7 1 4 9 -7 18 -14 21 -14 7z"/>
<path d="M2420 6890 c-17 -35 -28 -66 -23 -71 5 -5 34 -17 66 -28 l57 -20 30
52 c17 29 29 59 27 67 -2 15 -54 44 -100 55 -24 6 -28 2 -57 -55z"/>
<path d="M7925 6790 c9 -16 18 -30 21 -30 2 0 -2 14 -11 30 -9 17 -18 30 -21
30 -2 0 2 -13 11 -30z"/>
<path d="M6935 6768 l-40 -43 43 40 c23 21 42 40 42 42 0 8 -9 0 -45 -39z"/>
<path d="M2300 6644 c-17 -36 -30 -69 -30 -74 0 -6 114 -40 135 -40 5 0 65
125 65 135 0 6 -110 45 -126 45 -9 0 -27 -27 -44 -66z"/>
<path d="M8020 6605 c0 -5 5 -17 10 -25 5 -8 10 -10 10 -5 0 6 -5 17 -10 25
-5 8 -10 11 -10 5z"/>
<path d="M7389 6543 c-13 -16 -12 -17 4 -4 9 7 17 15 17 17 0 8 -8 3 -21 -13z"/>
<path d="M7359 6443 c-13 -16 -12 -17 4 -4 9 7 17 15 17 17 0 8 -8 3 -21 -13z"/>
<path d="M2196 6373 c-14 -42 -24 -78 -22 -80 9 -10 139 -24 146 -16 4 4 16
33 25 63 10 30 20 60 22 66 3 10 -103 44 -136 44 -5 0 -21 -35 -35 -77z"/>
<path d="M7659 6371 c-36 -37 -36 -52 -1 -92 22 -25 36 -31 67 -31 50 0 90 40
80 81 -18 73 -93 94 -146 42z m102 -1 c22 -12 27 -68 7 -88 -17 -17 -68 -15
-90 5 -53 48 17 118 83 83z"/>
<path d="M7279 6353 c-13 -16 -12 -17 4 -4 16 13 21 21 13 21 -2 0 -10 -8 -17
-17z"/>
<path d="M7134 6258 l-19 -23 23 19 c21 18 27 26 19 26 -2 0 -12 -10 -23 -22z"/>
<path d="M2116 6098 c-9 -45 -13 -85 -9 -89 5 -4 38 -10 75 -14 59 -6 67 -4
72 12 9 33 27 145 23 149 -5 5 -105 24 -127 24 -13 0 -21 -17 -34 -82z"/>
<path d="M6616 6145 c-9 -26 -7 -32 5 -12 6 10 9 21 6 23 -2 3 -7 -2 -11 -11z"/>
<path d="M6647 6153 c-24 -23 20 -26 88 -4 27 8 24 9 -26 10 -31 1 -59 -2 -62
-6z"/>
<path d="M8231 5964 c0 -11 3 -14 6 -6 3 7 2 16 -1 19 -3 4 -6 -2 -5 -13z"/>
<path d="M7959 5881 c-35 -36 -37 -64 -4 -96 35 -36 96 -35 124 1 28 36 26 65
-7 97 -37 36 -75 35 -113 -2z m102 -12 c26 -26 21 -57 -14 -83 -26 -19 -30
-19 -55 -5 -33 18 -41 62 -16 90 22 25 59 24 85 -2z"/>
<path d="M2076 5882 c-3 -6 -9 -44 -12 -85 l-7 -74 79 -6 c43 -3 79 -5 81 -4
1 1 5 37 9 79 8 86 12 82 -87 93 -35 4 -59 3 -63 -3z"/>
<path d="M6487 5873 c-4 -3 -7 -11 -7 -17 0 -6 5 -5 12 2 6 6 9 14 7 17 -3 3
-9 2 -12 -2z"/>
<path d="M7881 5844 c0 -11 3 -14 6 -6 3 7 2 16 -1 19 -3 4 -6 -2 -5 -13z"/>
<path d="M8261 5784 c0 -11 3 -14 6 -6 3 7 2 16 -1 19 -3 4 -6 -2 -5 -13z"/>
<path d="M2461 5774 c0 -11 3 -14 6 -6 3 7 2 16 -1 19 -3 4 -6 -2 -5 -13z"/>
<path d="M2452 5685 c0 -16 2 -22 5 -12 2 9 2 23 0 30 -3 6 -5 -1 -5 -18z"/>
<path d="M6367 5603 l-17 -38 20 24 c11 13 20 29 20 37 0 22 -5 17 -23 -23z"/>
<path d="M8283 5585 c0 -22 2 -30 4 -17 2 12 2 30 0 40 -3 9 -5 -1 -4 -23z"/>
<path d="M2042 5518 l3 -83 78 0 77 -1 0 83 0 83 -80 0 -81 0 3 -82z"/>
<path d="M2443 5470 c0 -47 2 -66 4 -42 2 23 2 61 0 85 -2 23 -4 4 -4 -43z"/>
<path d="M6327 5463 c-16 -16 -4 -23 36 -21 l42 1 -40 5 c-36 4 -38 6 -15 12
22 7 22 8 4 9 -11 1 -24 -2 -27 -6z"/>
<path d="M6293 5443 c-3 -10 -8 -22 -10 -28 -3 -5 3 -1 11 9 16 20 21 36 11
36 -3 0 -8 -8 -12 -17z"/>
<path d="M6498 5443 c12 -2 30 -2 40 0 9 3 -1 5 -23 4 -22 0 -30 -2 -17 -4z"/>
<path d="M2423 5330 c0 -41 2 -58 4 -37 2 20 2 54 0 75 -2 20 -4 3 -4 -38z"/>
<path d="M7890 5372 c-17 -18 -30 -41 -30 -55 0 -31 52 -77 86 -77 115 0 130
142 17 157 -37 5 -46 2 -73 -25z m102 -4 c44 -35 15 -108 -42 -108 -26 0 -70
38 -70 60 0 4 9 19 21 34 22 28 64 35 91 14z"/>
<path d="M2044 5308 c-10 -15 -4 -161 6 -172 9 -9 147 7 158 18 3 3 1 41 -4
83 l-9 78 -72 2 c-44 1 -75 -3 -79 -9z"/>
<path d="M6230 5300 c-9 -17 -2 -18 123 -17 120 0 124 1 47 6 l-85 6 65 8 c36
4 81 9 100 11 19 2 -27 3 -103 4 -122 0 -138 -2 -147 -18z"/>
<path d="M2452 5280 c0 -19 2 -27 5 -17 2 9 2 25 0 35 -3 9 -5 1 -5 -18z"/>
<path d="M8283 5205 c0 -27 2 -38 4 -22 2 15 2 37 0 50 -2 12 -4 0 -4 -28z"/>
<path d="M2432 5195 c0 -16 2 -22 5 -12 2 9 2 23 0 30 -3 6 -5 -1 -5 -18z"/>
<path d="M3741 5194 c0 -11 3 -14 6 -6 3 7 2 16 -1 19 -3 4 -6 -2 -5 -13z"/>
<path d="M2461 5174 c0 -11 3 -14 6 -6 3 7 2 16 -1 19 -3 4 -6 -2 -5 -13z"/>
<path d="M2442 5140 c-1 -14 3 -43 7 -65 6 -26 9 -31 9 -15 1 14 -3 43 -7 65
-6 26 -9 31 -9 15z"/>
<path d="M2472 5110 c0 -14 2 -19 5 -12 2 6 2 18 0 25 -3 6 -5 1 -5 -13z"/>
<path d="M8272 5095 c0 -16 2 -22 5 -12 2 9 2 23 0 30 -3 6 -5 -1 -5 -18z"/>
<path d="M6131 5083 l-11 -28 20 24 c16 19 20 20 20 6 0 -15 13 -16 128 -12
124 4 138 6 175 22 10 4 43 5 73 2 32 -3 52 -2 49 4 -4 5 -101 9 -224 9 l-218
0 -12 -27z m142 0 c-7 -2 -19 -2 -25 0 -7 3 -2 5 12 5 14 0 19 -2 13 -5z"/>
<path d="M5816 5065 c-9 -26 -7 -32 5 -12 6 10 9 21 6 23 -2 3 -7 -2 -11 -11z"/>
<path d="M3743 4990 c0 -41 2 -58 4 -37 2 20 2 54 0 75 -2 20 -4 3 -4 -38z"/>
<path d="M1991 5024 c0 -11 3 -14 6 -6 3 7 2 16 -1 19 -3 4 -6 -2 -5 -13z"/>
<path d="M2132 5023 c-43 -3 -65 -9 -68 -18 -6 -14 20 -163 29 -172 6 -5 151
18 159 25 6 7 -17 146 -28 163 -3 5 -11 8 -17 7 -7 -1 -40 -3 -75 -5z"/>
<path d="M8262 5010 c0 -14 2 -19 5 -12 2 6 2 18 0 25 -3 6 -5 1 -5 -13z"/>
<path d="M2461 5004 c0 -11 3 -14 6 -6 3 7 2 16 -1 19 -3 4 -6 -2 -5 -13z"/>
<path d="M7706 4998 c-36 -33 -42 -68 -16 -101 42 -53 127 -51 155 4 21 40 19
57 -14 90 -37 37 -88 39 -125 7z m102 -14 c45 -31 15 -106 -43 -106 -32 0 -65
28 -65 56 0 57 59 84 108 50z"/>
<path d="M2492 4980 c0 -14 2 -19 5 -12 2 6 2 18 0 25 -3 6 -5 1 -5 -13z"/>
<path d="M8252 4950 c0 -14 2 -19 5 -12 2 6 2 18 0 25 -3 6 -5 1 -5 -13z"/>
<path d="M6066 4935 c-9 -26 -7 -32 5 -12 6 10 9 21 6 23 -2 3 -7 -2 -11 -11z"/>
<path d="M2501 4924 c0 -11 3 -14 6 -6 3 7 2 16 -1 19 -3 4 -6 -2 -5 -13z"/>
<path d="M2011 4894 c0 -11 3 -14 6 -6 3 7 2 16 -1 19 -3 4 -6 -2 -5 -13z"/>
<path d="M8231 4834 c0 -11 3 -14 6 -6 3 7 2 16 -1 19 -3 4 -6 -2 -5 -13z"/>
<path d="M5461 4810 c14 -31 19 -36 19 -24 0 6 -7 19 -16 30 -14 18 -14 18 -3
-6z"/>
<path d="M8221 4784 c0 -11 3 -14 6 -6 3 7 2 16 -1 19 -3 4 -6 -2 -5 -13z"/>
<path d="M8211 4744 c0 -11 3 -14 6 -6 3 7 2 16 -1 19 -3 4 -6 -2 -5 -13z"/>
<path d="M2193 4726 c-35 -7 -66 -16 -70 -20 -4 -3 -1 -28 5 -54 7 -26 17 -64
23 -84 l9 -36 68 20 c37 11 75 22 85 25 21 7 21 12 -6 93 -13 39 -28 66 -37
67 -8 1 -43 -4 -77 -11z"/>
<path d="M8201 4704 c0 -11 3 -14 6 -6 3 7 2 16 -1 19 -3 4 -6 -2 -5 -13z"/>
<path d="M7313 4670 c-62 -37 -38 -129 38 -144 80 -16 139 61 91 120 -37 47
-80 55 -129 24z m102 -25 c14 -13 25 -33 25 -44 0 -48 -96 -70 -124 -29 -21
30 -20 54 4 78 27 27 66 25 95 -5z"/>
<path d="M3568 4663 c83 -2 221 -2 305 0 83 1 15 3 -153 3 -168 0 -236 -2
-152 -3z"/>
<path d="M4058 4663 c12 -2 32 -2 45 0 12 2 2 4 -23 4 -25 0 -35 -2 -22 -4z"/>
<path d="M4178 4663 c29 -2 74 -2 100 0 26 2 2 3 -53 3 -55 0 -76 -1 -47 -3z"/>
<path d="M5710 4625 c0 -8 5 -15 10 -15 6 0 10 7 10 15 0 8 -4 15 -10 15 -5 0
-10 -7 -10 -15z"/>
<path d="M7270 4515 c13 -14 26 -25 28 -25 3 0 -5 11 -18 25 -13 14 -26 25
-28 25 -3 0 5 -11 18 -25z"/>
<path d="M8126 4465 c-9 -26 -7 -32 5 -12 6 10 9 21 6 23 -2 3 -7 -2 -11 -11z"/>
<path d="M2275 4438 c-38 -11 -72 -22 -74 -24 -4 -4 9 -40 47 -126 l24 -57 72
26 c39 14 76 30 83 35 15 12 -46 162 -67 164 -8 1 -46 -7 -85 -18z"/>
<path d="M5646 4427 c3 -10 9 -15 12 -12 3 3 0 11 -7 18 -10 9 -11 8 -5 -6z"/>
<path d="M8066 4315 c-9 -26 -7 -32 5 -12 6 10 9 21 6 23 -2 3 -7 -2 -11 -11z"/>
<path d="M8037 4245 c-24 -50 -20 -58 4 -12 11 22 19 41 17 43 -3 2 -12 -12
-21 -31z"/>
<path d="M2403 4152 c-65 -27 -80 -38 -75 -51 5 -13 90 -169 97 -179 3 -3 61
28 101 55 14 9 21 19 16 22 -11 7 -36 51 -37 66 -1 6 -6 23 -13 38 -14 34 -16
60 -2 52 5 -3 21 -28 36 -55 15 -28 29 -48 31 -46 4 4 -54 118 -65 127 -4 3
-44 -10 -89 -29z m84 -124 c-3 -8 -6 -5 -6 6 -1 11 2 17 5 13 3 -3 4 -12 1
-19z"/>
<path d="M7977 4035 c-9 -19 -15 -35 -12 -35 7 0 37 61 33 66 -3 2 -12 -12
-21 -31z"/>
<path d="M6162 3955 c0 -16 2 -22 5 -12 2 9 2 23 0 30 -3 6 -5 -1 -5 -18z"/>
<path d="M7709 3893 c-13 -16 -12 -17 4 -4 9 7 17 15 17 17 0 8 -8 3 -21 -13z"/>
<path d="M2960 3861 c0 -5 5 -13 10 -16 6 -3 10 -2 10 4 0 5 -4 13 -10 16 -5
3 -10 2 -10 -4z"/>
<path d="M3650 3862 c0 -18 23 -62 32 -62 5 0 3 10 -4 23 -7 12 -12 25 -13 29
0 12 -15 22 -15 10z"/>
<path d="M3058 3793 c12 -2 30 -2 40 0 9 3 -1 5 -23 4 -22 0 -30 -2 -17 -4z"/>
<path d="M2560 3696 c0 -2 8 -10 18 -17 15 -13 16 -12 3 4 -13 16 -21 21 -21
13z"/>
<path d="M3135 3650 c10 -11 20 -20 23 -20 3 0 -3 9 -13 20 -10 11 -20 20 -23
20 -3 0 3 -9 13 -20z"/>
<path d="M2590 3656 c0 -2 8 -10 18 -17 15 -13 16 -12 3 4 -13 16 -21 21 -21
13z"/>
<path d="M2773 3634 l-28 -26 33 22 c29 20 39 30 28 30 -3 0 -18 -12 -33 -26z"/>
<path d="M2704 3578 l-19 -23 23 19 c12 11 22 21 22 23 0 8 -8 2 -26 -19z"/>
<path d="M2905 3580 c10 -11 20 -20 23 -20 3 0 -3 9 -13 20 -10 11 -20 20 -23
20 -3 0 3 -9 13 -20z"/>
<path d="M3295 3490 c10 -11 20 -20 23 -20 3 0 -3 9 -13 20 -10 11 -20 20 -23
20 -3 0 3 -9 13 -20z"/>
<path d="M7339 3493 c-13 -16 -12 -17 4 -4 16 13 21 21 13 21 -2 0 -10 -8 -17
-17z"/>
<path d="M2755 3450 c21 -22 41 -40 44 -40 3 0 -13 18 -34 40 -21 22 -41 40
-44 40 -3 0 13 -18 34 -40z"/>
<path d="M2650 3467 c0 -2 15 -16 33 -33 l32 -29 -29 33 c-28 30 -36 37 -36
29z"/>
<path d="M3370 3426 c0 -2 8 -10 18 -17 15 -13 16 -12 3 4 -13 16 -21 21 -21
13z"/>
<path d="M2973 3364 c-35 -31 -63 -61 -63 -68 0 -6 26 -36 58 -66 l57 -55 -54
57 c-62 65 -63 59 23 140 71 66 54 60 -21 -8z"/>
<path d="M2750 3355 c19 -19 36 -35 39 -35 3 0 -10 16 -29 35 -19 19 -36 35
-39 35 -3 0 10 -16 29 -35z"/>
<path d="M3150 3336 c0 -2 8 -10 18 -17 15 -13 16 -12 3 4 -13 16 -21 21 -21
13z"/>
<path d="M2818 3283 c19 -27 100 -102 207 -192 23 -20 22 -17 -5 10 -101 102
-221 210 -202 182z"/>
<path d="M3266 3221 c-3 -5 3 -11 15 -14 16 -4 18 -3 8 9 -13 16 -16 17 -23 5z"/>
<path d="M3199 3138 c-29 -34 -46 -57 -37 -52 16 9 104 114 95 114 -2 0 -28
-28 -58 -62z"/>
<path d="M3700 3176 c0 -3 9 -10 20 -16 11 -6 20 -8 20 -6 0 3 -9 10 -20 16
-11 6 -20 8 -20 6z"/>
<path d="M3010 3156 c0 -3 9 -10 20 -16 11 -6 20 -8 20 -6 0 3 -9 10 -20 16
-11 6 -20 8 -20 6z"/>
<path d="M3416 3108 c10 -14 21 -24 23 -22 3 3 -6 15 -18 27 l-24 22 19 -27z"/>
<path d="M3090 3040 c43 -39 165 -130 205 -154 l30 -18 -29 24 c-77 61 -237
176 -206 148z"/>
<path d="M3160 3066 c0 -2 8 -10 18 -17 15 -13 16 -12 3 4 -13 16 -21 21 -21
13z"/>
<path d="M3190 3011 c52 -48 88 -69 60 -36 -15 18 1 20 18 3 7 -7 12 -10 12
-7 0 3 -19 21 -42 39 -36 28 -39 29 -19 7 34 -38 18 -34 -37 9 -44 34 -44 33
8 -15z"/>
<path d="M3940 3036 c0 -2 7 -7 16 -10 8 -3 12 -2 9 4 -6 10 -25 14 -25 6z"/>
<path d="M3302 2954 c10 -10 20 -15 24 -12 3 4 -5 12 -18 18 -22 12 -22 12 -6
-6z"/>
<path d="M3465 2899 c-4 -6 -5 -12 -2 -15 2 -3 7 2 10 11 7 17 1 20 -8 4z"/>
<path d="M3460 2850 c14 -11 48 -31 75 -45 51 -26 48 -24 -37 33 -55 35 -78
43 -38 12z"/>
<path d="M3400 2816 c0 -3 9 -10 20 -16 11 -6 20 -8 20 -6 0 3 -9 10 -20 16
-11 6 -20 8 -20 6z"/>
<path d="M3597 2769 c7 -7 15 -10 18 -7 3 3 -2 9 -12 12 -14 6 -15 5 -6 -5z"/>
<path d="M5098 2723 c12 -2 32 -2 45 0 12 2 2 4 -23 4 -25 0 -35 -2 -22 -4z"/>
<path d="M5248 2373 c6 -2 18 -2 25 0 6 3 1 5 -13 5 -14 0 -19 -2 -12 -5z"/>
<path d="M3598 8244 c-49 -24 -88 -46 -88 -49 0 -5 179 82 189 91 15 14 -26
-3 -101 -42z"/>
<path d="M3454 8164 c-18 -14 -18 -15 4 -4 12 6 22 13 22 15 0 8 -5 6 -26 -11z"/>
<path d="M3470 8150 c-9 -6 -10 -10 -3 -10 6 0 15 5 18 10 8 12 4 12 -15 0z"/>
<path d="M3398 8134 c-38 -20 -36 -28 2 -9 17 9 30 18 30 20 0 7 -1 6 -32 -11z"/>
<path d="M3303 8044 l-28 -25 33 16 c17 8 32 20 32 25 0 15 -6 12 -37 -16z"/>
<path d="M7040 8026 c0 -2 8 -10 18 -17 15 -13 16 -12 3 4 -13 16 -21 21 -21
13z"/>
<path d="M3235 7994 l-30 -26 33 22 c17 12 32 23 32 26 0 7 -4 5 -35 -22z"/>
<path d="M3169 7983 c-13 -16 -12 -17 4 -4 9 7 17 15 17 17 0 8 -8 3 -21 -13z"/>
<path d="M7100 7986 c0 -2 8 -10 18 -17 15 -13 16 -12 3 4 -13 16 -21 21 -21
13z"/>
<path d="M3110 7939 l-35 -30 38 26 c33 24 43 35 34 35 -1 0 -18 -14 -37 -31z"/>
<path d="M7140 7956 c0 -2 8 -10 18 -17 15 -13 16 -12 3 4 -13 16 -21 21 -21
13z"/>
<path d="M3094 7898 c-58 -45 -68 -53 -98 -82 -49 -46 52 30 129 96 21 18 -4
6 -31 -14z"/>
<path d="M3020 7869 l-45 -41 48 37 c41 33 53 45 45 45 -2 0 -23 -18 -48 -41z"/>
<path d="M7230 7886 c0 -2 8 -10 18 -17 15 -13 16 -12 3 4 -13 16 -21 21 -21
13z"/>
<path d="M7300 7825 c13 -14 26 -25 28 -25 3 0 -5 11 -18 25 -13 14 -26 25
-28 25 -3 0 5 -11 18 -25z"/>
<path d="M2929 7793 l-34 -38 38 34 c20 19 37 36 37 38 0 8 -8 0 -41 -34z"/>
<path d="M7405 7730 c33 -33 62 -60 64 -60 3 0 -21 27 -54 60 -33 33 -62 60
-64 60 -3 0 21 -27 54 -60z"/>
<path d="M2904 7738 l-29 -33 30 25 c17 14 34 28 40 32 5 5 5 8 -1 8 -6 0 -23
-15 -40 -32z"/>
<path d="M2765 7638 l-110 -113 113 110 c104 102 117 115 109 115 -1 0 -52
-51 -112 -112z"/>
<path d="M2820 7665 c-20 -24 -6 -28 15 -5 10 11 13 20 8 20 -6 0 -16 -7 -23
-15z"/>
<path d="M7525 7620 c10 -11 20 -20 23 -20 3 0 -3 9 -13 20 -10 11 -20 20 -23
20 -3 0 3 -9 13 -20z"/>
<path d="M2735 7580 c-10 -11 -13 -20 -7 -20 6 0 16 9 22 20 6 11 9 20 7 20
-2 0 -12 -9 -22 -20z"/>
<path d="M7605 7530 c21 -22 41 -40 44 -40 3 0 -13 18 -34 40 -21 22 -41 40
-44 40 -3 0 13 -18 34 -40z"/>
<path d="M2619 7483 l-34 -38 38 34 c20 19 37 36 37 38 0 8 -8 0 -41 -34z"/>
<path d="M2657 7494 c-26 -35 -17 -38 11 -3 13 16 20 29 15 29 -4 0 -16 -12
-26 -26z"/>
<path d="M7660 7467 c0 -2 15 -16 33 -33 l32 -29 -29 33 c-28 30 -36 37 -36
29z"/>
<path d="M2564 7418 l-19 -23 23 19 c21 18 27 26 19 26 -2 0 -12 -10 -23 -22z"/>
<path d="M2591 7408 c-55 -59 -90 -103 -86 -107 3 -2 6 -2 8 0 2 2 27 32 56
67 51 60 66 86 22 40z"/>
<path d="M2510 7350 c-17 -22 -29 -40 -27 -40 3 0 20 18 37 40 17 22 29 40 27
40 -3 0 -20 -18 -37 -40z"/>
<path d="M7730 7386 c0 -2 8 -10 18 -17 15 -13 16 -12 3 4 -13 16 -21 21 -21
13z"/>
<path d="M7770 7336 c0 -2 8 -10 18 -17 15 -13 16 -12 3 4 -13 16 -21 21 -21
13z"/>
<path d="M2459 7283 c-13 -16 -12 -17 4 -4 9 7 17 15 17 17 0 8 -8 3 -21 -13z"/>
<path d="M7800 7296 c0 -2 8 -10 18 -17 15 -13 16 -12 3 4 -13 16 -21 21 -21
13z"/>
<path d="M2480 7270 c-9 -6 -10 -10 -3 -10 6 0 15 5 18 10 8 12 4 12 -15 0z"/>
<path d="M2420 7230 c-12 -16 -19 -30 -16 -30 2 0 14 14 26 30 12 17 19 30 16
30 -2 0 -14 -13 -26 -30z"/>
<path d="M7895 7166 c10 -14 19 -26 22 -26 7 0 -17 39 -28 46 -6 3 -3 -5 6
-20z"/>
<path d="M2346 7077 c-36 -61 -32 -73 5 -13 17 26 28 50 26 53 -3 2 -17 -15
-31 -40z"/>
<path d="M2300 7048 c-46 -72 -144 -258 -136 -258 3 0 24 37 47 82 23 45 63
117 90 160 26 43 46 78 43 78 -2 0 -22 -28 -44 -62z"/>
<path d="M8086 6847 c3 -10 9 -15 12 -12 3 3 0 11 -7 18 -10 9 -11 8 -5 -6z"/>
<path d="M2127 6724 c-37 -74 -33 -83 4 -10 17 32 29 60 27 62 -2 2 -16 -21
-31 -52z"/>
<path d="M8180 6655 c0 -5 5 -17 10 -25 5 -8 10 -10 10 -5 0 6 -5 17 -10 25
-5 8 -10 11 -10 5z"/>
<path d="M2056 6565 c-9 -26 -7 -32 5 -12 6 10 9 21 6 23 -2 3 -7 -2 -11 -11z"/>
<path d="M2006 6435 c-3 -9 -6 -22 -5 -28 0 -7 5 -1 10 12 5 13 8 26 5 28 -2
2 -6 -3 -10 -12z"/>
<path d="M1961 6284 c0 -11 3 -14 6 -6 3 7 2 16 -1 19 -3 4 -6 -2 -5 -13z"/>
<path d="M1941 6214 c0 -11 3 -14 6 -6 3 7 2 16 -1 19 -3 4 -6 -2 -5 -13z"/>
<path d="M1921 6144 c0 -11 3 -14 6 -6 3 7 2 16 -1 19 -3 4 -6 -2 -5 -13z"/>
<path d="M1911 6104 c0 -11 3 -14 6 -6 3 7 2 16 -1 19 -3 4 -6 -2 -5 -13z"/>
<path d="M1931 6084 c0 -11 3 -14 6 -6 3 7 2 16 -1 19 -3 4 -6 -2 -5 -13z"/>
<path d="M1902 6060 c0 -14 2 -19 5 -12 2 6 2 18 0 25 -3 6 -5 1 -5 -13z"/>
<path d="M1891 6014 c0 -11 3 -14 6 -6 3 7 2 16 -1 19 -3 4 -6 -2 -5 -13z"/>
<path d="M8391 6004 c0 -11 3 -14 6 -6 3 7 2 16 -1 19 -3 4 -6 -2 -5 -13z"/>
<path d="M1881 5964 c0 -11 3 -14 6 -6 3 7 2 16 -1 19 -3 4 -6 -2 -5 -13z"/>
<path d="M8401 5954 c0 -11 3 -14 6 -6 3 7 2 16 -1 19 -3 4 -6 -2 -5 -13z"/>
<path d="M1871 5914 c0 -11 3 -14 6 -6 3 7 2 16 -1 19 -3 4 -6 -2 -5 -13z"/>
<path d="M8411 5894 c0 -11 3 -14 6 -6 3 7 2 16 -1 19 -3 4 -6 -2 -5 -13z"/>
<path d="M1891 5884 c0 -11 3 -14 6 -6 3 7 2 16 -1 19 -3 4 -6 -2 -5 -13z"/>
<path d="M1862 5850 c0 -14 2 -19 5 -12 2 6 2 18 0 25 -3 6 -5 1 -5 -13z"/>
<path d="M8422 5830 c0 -14 2 -19 5 -12 2 6 2 18 0 25 -3 6 -5 1 -5 -13z"/>
<path d="M1882 5810 c0 -19 2 -27 5 -17 2 9 2 25 0 35 -3 9 -5 1 -5 -18z"/>
<path d="M1852 5785 c0 -16 2 -22 5 -12 2 9 2 23 0 30 -3 6 -5 -1 -5 -18z"/>
<path d="M8432 5745 c0 -16 2 -22 5 -12 2 9 2 23 0 30 -3 6 -5 -1 -5 -18z"/>
<path d="M1842 5710 c0 -14 2 -19 5 -12 2 6 2 18 0 25 -3 6 -5 1 -5 -13z"/>
<path d="M8443 5620 c0 -25 2 -35 4 -22 2 12 2 32 0 45 -2 12 -4 2 -4 -23z"/>
<path d="M1833 5600 c0 -30 2 -43 4 -27 2 15 2 39 0 55 -2 15 -4 2 -4 -28z"/>
<path d="M1824 5385 c0 -77 2 -107 3 -67 2 40 2 103 0 140 -2 37 -3 4 -3 -73z"/>
<path d="M8453 5395 c0 -38 2 -53 4 -32 2 20 2 52 0 70 -2 17 -4 1 -4 -38z"/>
<path d="M1853 5390 c0 -30 2 -43 4 -27 2 15 2 39 0 55 -2 15 -4 2 -4 -28z"/>
<path d="M1833 5155 c0 -33 2 -45 4 -27 2 18 2 45 0 60 -2 15 -4 0 -4 -33z"/>
<path d="M1861 5123 c0 -46 2 -83 7 -83 4 0 6 26 4 57 -5 101 -9 111 -11 26z"/>
<path d="M8443 5160 c0 -25 2 -35 4 -22 2 12 2 32 0 45 -2 12 -4 2 -4 -23z"/>
<path d="M8411 5104 c0 -11 3 -14 6 -6 3 7 2 16 -1 19 -3 4 -6 -2 -5 -13z"/>
<path d="M8432 5050 c0 -19 2 -27 5 -17 2 9 2 25 0 35 -3 9 -5 1 -5 -18z"/>
<path d="M1843 5025 c0 -22 2 -30 4 -17 2 12 2 30 0 40 -3 9 -5 -1 -4 -23z"/>
<path d="M1871 4984 c0 -11 3 -14 6 -6 3 7 2 16 -1 19 -3 4 -6 -2 -5 -13z"/>
<path d="M8422 4960 c0 -19 2 -27 5 -17 2 9 2 25 0 35 -3 9 -5 1 -5 -18z"/>
<path d="M1852 4940 c0 -19 2 -27 5 -17 2 9 2 25 0 35 -3 9 -5 1 -5 -18z"/>
<path d="M1882 4930 c0 -19 2 -27 5 -17 2 9 2 25 0 35 -3 9 -5 1 -5 -18z"/>
<path d="M8392 4940 c0 -14 2 -19 5 -12 2 6 2 18 0 25 -3 6 -5 1 -5 -13z"/>
<path d="M8412 4900 c0 -14 2 -19 5 -12 2 6 2 18 0 25 -3 6 -5 1 -5 -13z"/>
<path d="M8381 4894 c0 -11 3 -14 6 -6 3 7 2 16 -1 19 -3 4 -6 -2 -5 -13z"/>
<path d="M1862 4865 c0 -16 2 -22 5 -12 2 9 2 23 0 30 -3 6 -5 -1 -5 -18z"/>
<path d="M8402 4845 c0 -16 2 -22 5 -12 2 9 2 23 0 30 -3 6 -5 -1 -5 -18z"/>
<path d="M8372 4840 c0 -14 2 -19 5 -12 2 6 2 18 0 25 -3 6 -5 1 -5 -13z"/>
<path d="M1872 4800 c0 -14 2 -19 5 -12 2 6 2 18 0 25 -3 6 -5 1 -5 -13z"/>
<path d="M8386 4764 c-4 -20 -5 -38 -3 -40 3 -3 8 11 11 32 4 20 5 38 3 40 -3
3 -8 -11 -11 -32z"/>
<path d="M1882 4750 c0 -14 2 -19 5 -12 2 6 2 18 0 25 -3 6 -5 1 -5 -13z"/>
<path d="M1892 4700 c0 -14 2 -19 5 -12 2 6 2 18 0 25 -3 6 -5 1 -5 -13z"/>
<path d="M8371 4694 c0 -11 3 -14 6 -6 3 7 2 16 -1 19 -3 4 -6 -2 -5 -13z"/>
<path d="M1901 4654 c0 -11 3 -14 6 -6 3 7 2 16 -1 19 -3 4 -6 -2 -5 -13z"/>
<path d="M8361 4654 c0 -11 3 -14 6 -6 3 7 2 16 -1 19 -3 4 -6 -2 -5 -13z"/>
<path d="M1911 4604 c0 -11 3 -14 6 -6 3 7 2 16 -1 19 -3 4 -6 -2 -5 -13z"/>
<path d="M8341 4574 c0 -11 3 -14 6 -6 3 7 2 16 -1 19 -3 4 -6 -2 -5 -13z"/>
<path d="M1921 4564 c0 -11 3 -14 6 -6 3 7 2 16 -1 19 -3 4 -6 -2 -5 -13z"/>
<path d="M1931 4524 c0 -11 3 -14 6 -6 3 7 2 16 -1 19 -3 4 -6 -2 -5 -13z"/>
<path d="M8292 4413 c-12 -37 -20 -69 -18 -71 2 -2 14 27 26 63 12 36 20 68
18 70 -2 3 -14 -26 -26 -62z"/>
<path d="M8197 4158 c-9 -23 -15 -43 -13 -45 2 -2 11 15 20 38 9 23 15 43 13
45 -2 2 -11 -15 -20 -38z"/>
<path d="M2080 4095 c0 -5 5 -17 10 -25 5 -8 10 -10 10 -5 0 6 -5 17 -10 25
-5 8 -10 11 -10 5z"/>
<path d="M8157 4065 c-24 -50 -20 -58 4 -12 11 22 19 41 17 43 -3 2 -12 -12
-21 -31z"/>
<path d="M2126 3997 c3 -10 9 -15 12 -12 3 3 0 11 -7 18 -10 9 -11 8 -5 -6z"/>
<path d="M8090 3930 c-17 -33 -28 -60 -25 -60 2 0 18 27 35 60 17 33 28 60 25
60 -2 0 -18 -27 -35 -60z"/>
<path d="M2200 3850 c6 -11 13 -20 16 -20 2 0 0 9 -6 20 -6 11 -13 20 -16 20
-2 0 0 -9 6 -20z"/>
<path d="M8025 3859 c-4 -6 -5 -12 -2 -15 2 -3 7 2 10 11 7 17 1 20 -8 4z"/>
<path d="M8025 3810 c-9 -16 -13 -30 -11 -30 3 0 12 14 21 30 9 17 13 30 11
30 -3 0 -12 -13 -21 -30z"/>
<path d="M7988 3803 c-15 -33 -100 -171 -120 -193 -8 -9 -24 -32 -36 -52 -13
-20 -26 -38 -30 -40 -19 -8 -81 -97 -72 -103 6 -4 9 -1 8 7 -2 7 4 12 12 10 8
-2 12 -1 9 3 -4 3 3 17 15 30 11 13 34 40 50 60 37 46 47 38 11 -9 -15 -20
-25 -36 -22 -36 6 0 93 119 126 173 34 56 18 45 -19 -13 -18 -28 -35 -49 -37
-46 -5 4 22 51 79 139 47 72 59 97 48 97 -6 0 -16 -12 -22 -27z m-116 -235
c-7 -7 -12 -8 -12 -2 0 14 12 26 19 19 2 -3 -1 -11 -7 -17z"/>
<path d="M2240 3780 c6 -11 13 -20 16 -20 2 0 0 9 -6 20 -6 11 -13 20 -16 20
-2 0 0 -9 6 -20z"/>
<path d="M7994 3758 c-4 -7 -14 -24 -22 -38 -14 -24 -13 -24 3 -5 20 24 37 55
31 55 -3 0 -8 -6 -12 -12z"/>
<path d="M2320 3651 c5 -11 15 -23 21 -27 6 -3 3 5 -6 20 -20 30 -30 35 -15 7z"/>
<path d="M2416 3515 c37 -54 134 -174 147 -182 9 -5 -45 63 -146 187 l-29 35
28 -40z"/>
<path d="M7770 3430 c-17 -22 -35 -38 -40 -35 -4 3 -14 -3 -21 -12 -12 -15
-12 -16 1 -8 8 6 19 10 24 10 9 0 82 85 73 85 -3 0 -20 -18 -37 -40z"/>
<path d="M7690 3333 c-72 -84 -281 -290 -365 -361 -95 -80 -138 -118 -100 -92
64 46 214 178 300 265 99 100 212 225 202 225 -3 0 -19 -17 -37 -37z"/>
<path d="M7654 3339 c-10 -12 -19 -24 -19 -28 0 -3 -3 -5 -6 -4 -3 1 -6 -5 -6
-13 0 -11 4 -11 19 3 10 9 16 18 13 21 -2 3 5 13 17 23 11 11 17 19 11 19 -5
0 -18 -9 -29 -21z"/>
<path d="M2647 3235 c45 -49 101 -108 125 -130 23 -22 8 -4 -34 40 -43 44 -78
85 -78 90 0 5 13 -4 29 -19 19 -18 29 -23 27 -13 -2 19 -27 49 -34 42 -3 -3
-11 0 -19 6 -7 6 -13 8 -13 3 0 -4 -19 10 -42 31 -23 22 -5 0 39 -50z m54 -12
c13 -16 12 -17 -3 -4 -17 13 -22 21 -14 21 2 0 10 -8 17 -17z"/>
<path d="M2610 3306 c0 -2 7 -9 15 -16 9 -7 15 -8 15 -2 0 5 -7 12 -15 16 -8
3 -15 4 -15 2z"/>
<path d="M7564 3228 l-29 -33 33 29 c17 17 32 31 32 33 0 8 -8 1 -36 -29z"/>
<path d="M2762 3143 c37 -38 37 -38 34 -18 -3 21 -34 52 -51 52 -11 0 -5 -11
17 -34z m13 7 c10 -11 16 -20 13 -20 -3 0 -13 9 -23 20 -10 11 -16 20 -13 20
3 0 13 -9 23 -20z"/>
<path d="M7499 3163 c-13 -16 -12 -17 4 -4 16 13 21 21 13 21 -2 0 -10 -8 -17
-17z"/>
<path d="M2810 3096 c0 -2 8 -10 18 -17 15 -13 16 -12 3 4 -13 16 -21 21 -21
13z"/>
<path d="M2876 3013 c28 -27 71 -64 95 -83 62 -47 29 -15 -66 64 -54 45 -63
51 -29 19z"/>
<path d="M2900 3036 c0 -2 8 -10 18 -17 15 -13 16 -12 3 4 -13 16 -21 21 -21
13z"/>
<path d="M3051 2868 c38 -34 146 -113 119 -86 -8 8 -46 38 -85 67 -38 29 -54
37 -34 19z"/>
<path d="M3096 2872 c-3 -5 1 -15 8 -21 11 -10 14 -9 12 3 -3 21 -13 29 -20
18z"/>
<path d="M7179 2853 c-13 -16 -12 -17 4 -4 16 13 21 21 13 21 -2 0 -10 -8 -17
-17z"/>
<path d="M7139 2823 c-13 -16 -12 -17 4 -4 16 13 21 21 13 21 -2 0 -10 -8 -17
-17z"/>
<path d="M7055 2764 l-30 -26 33 22 c17 12 32 23 32 26 0 7 -4 5 -35 -22z"/>
<path d="M3212 2748 c30 -26 88 -62 88 -55 0 2 -26 21 -57 41 -32 20 -46 27
-31 14z"/>
<path d="M6983 2719 c-35 -22 -46 -37 -15 -20 22 13 58 40 52 41 -3 0 -20 -10
-37 -21z"/>
<path d="M3310 2686 c0 -3 9 -10 20 -16 11 -6 20 -8 20 -6 0 3 -9 10 -20 16
-11 6 -20 8 -20 6z"/>
<path d="M6903 2669 c-35 -22 -46 -37 -15 -20 22 13 58 40 52 41 -3 0 -20 -10
-37 -21z"/>
<path d="M3395 2633 c6 -6 33 -23 60 -38 28 -16 46 -24 40 -18 -5 6 -32 23
-60 38 -27 16 -45 24 -40 18z"/>
<path d="M6828 2624 c-38 -20 -36 -28 2 -9 17 9 30 18 30 20 0 7 -1 6 -32 -11z"/>
<path d="M6698 2554 c-27 -13 -48 -27 -48 -29 0 -3 23 6 50 20 28 14 50 28 50
30 0 7 1 7 -52 -21z"/>
<path d="M6610 2510 c-8 -5 -10 -10 -5 -10 6 0 17 5 25 10 8 5 11 10 5 10 -5
0 -17 -5 -25 -10z"/>
<path d="M3650 2496 c0 -2 7 -7 16 -10 8 -3 12 -2 9 4 -6 10 -25 14 -25 6z"/>
<path d="M6570 2490 c-9 -6 -10 -10 -3 -10 6 0 15 5 18 10 8 12 4 12 -15 0z"/>
<path d="M3710 2465 c14 -8 30 -14 35 -14 6 0 -1 6 -15 14 -14 8 -29 14 -35
14 -5 0 1 -6 15 -14z"/>
<path d="M6480 2450 c-8 -5 -10 -10 -5 -10 6 0 17 5 25 10 8 5 11 10 5 10 -5
0 -17 -5 -25 -10z"/>
<path d="M3820 2416 c14 -7 36 -16 50 -20 14 -3 7 3 -15 13 -45 22 -73 27 -35
7z"/>
<path d="M3990 2350 c8 -5 20 -10 25 -10 6 0 3 5 -5 10 -8 5 -19 10 -25 10 -5
0 -3 -5 5 -10z"/>
<path d="M4105 2310 c11 -5 27 -9 35 -9 9 0 8 4 -5 9 -11 5 -27 9 -35 9 -9 0
-8 -4 5 -9z"/>
<path d="M5988 2273 c7 -3 16 -2 19 1 4 3 -2 6 -13 5 -11 0 -14 -3 -6 -6z"/>
<path d="M4268 2263 c7 -3 16 -2 19 1 4 3 -2 6 -13 5 -11 0 -14 -3 -6 -6z"/>
<path d="M5925 2260 c-13 -5 -14 -9 -5 -9 8 0 24 4 35 9 13 5 14 9 5 9 -8 0
-24 -4 -35 -9z"/>
<path d="M5878 2243 c7 -3 16 -2 19 1 4 3 -2 6 -13 5 -11 0 -14 -3 -6 -6z"/>
<path d="M5828 2233 c7 -3 16 -2 19 1 4 3 -2 6 -13 5 -11 0 -14 -3 -6 -6z"/>
<path d="M4428 2223 c7 -3 16 -2 19 1 4 3 -2 6 -13 5 -11 0 -14 -3 -6 -6z"/>
<path d="M5778 2223 c7 -3 16 -2 19 1 4 3 -2 6 -13 5 -11 0 -14 -3 -6 -6z"/>
<path d="M5728 2213 c6 -2 18 -2 25 0 6 3 1 5 -13 5 -14 0 -19 -2 -12 -5z"/>
<path d="M4528 2203 c6 -2 18 -2 25 0 6 3 1 5 -13 5 -14 0 -19 -2 -12 -5z"/>
<path d="M5668 2203 c6 -2 18 -2 25 0 6 3 1 5 -13 5 -14 0 -19 -2 -12 -5z"/>
<path d="M5608 2193 c6 -2 18 -2 25 0 6 3 1 5 -13 5 -14 0 -19 -2 -12 -5z"/>
<path d="M4648 2183 c6 -2 18 -2 25 0 6 3 1 5 -13 5 -14 0 -19 -2 -12 -5z"/>
<path d="M5533 2183 c9 -2 25 -2 35 0 9 3 1 5 -18 5 -19 0 -27 -2 -17 -5z"/>
<path d="M4728 2173 c7 -3 16 -2 19 1 4 3 -2 6 -13 5 -11 0 -14 -3 -6 -6z"/>
<path d="M5443 2173 c9 -2 25 -2 35 0 9 3 1 5 -18 5 -19 0 -27 -2 -17 -5z"/>
<path d="M4813 2163 c9 -2 25 -2 35 0 9 3 1 5 -18 5 -19 0 -27 -2 -17 -5z"/>
<path d="M5343 2163 c9 -2 25 -2 35 0 9 3 1 5 -18 5 -19 0 -27 -2 -17 -5z"/>
<path d="M5023 2153 c42 -2 112 -2 155 0 42 1 7 3 -78 3 -85 0 -120 -2 -77 -3z"/>
</g>
</svg>
